<?xml version="1.0" encoding="UTF-8"?>
<svg xmlns="http://www.w3.org/2000/svg" xmlns:xlink="http://www.w3.org/1999/xlink" width="75pt" height="75pt" viewBox="0 0 75 75" version="1.1">
<g id="surface23">
<path style=" stroke:none;fill-rule:nonzero;fill:rgb(0%,0%,0%);fill-opacity:1;" d="M 22.714844 1.871094 C 22.609375 1.847656 22.5 1.847656 22.390625 1.875 C 21.949219 1.984375 21.617188 2.425781 21.726562 2.867188 C 22.058594 4.632812 22.058594 6.617188 21.726562 8.605469 C 21.394531 9.597656 23.050781 9.925781 23.273438 8.933594 C 23.710938 6.835938 23.710938 4.632812 23.382812 2.539062 C 23.296875 2.207031 23.03125 1.9375 22.714844 1.871094 Z M 12.945312 4.097656 C 12.4375 4.191406 12.007812 4.742188 12.351562 5.296875 L 16.101562 12.023438 C 16.652344 13.015625 18.089844 12.242188 17.539062 11.25 L 13.785156 4.523438 C 13.578125 4.148438 13.25 4.042969 12.945312 4.097656 Z M 61.765625 4.523438 C 59.117188 4.742188 58.234375 4.523438 53.050781 4.964844 C 48.308594 5.40625 40.808594 6.949219 36.175781 8.273438 C 28.234375 10.589844 19.300781 14.007812 15.660156 21.398438 C 14.667969 23.492188 14.449219 25.699219 14.226562 28.234375 C 13.789062 33.96875 13.566406 39.816406 13.566406 45.550781 C 12.464844 57.132812 12.023438 60 12.683594 63.640625 C 13.234375 66.617188 14.667969 69.59375 17.207031 71.25 C 19.523438 72.792969 22.5 73.125 25.257812 73.125 C 31.765625 73.234375 38.160156 72.023438 44.335938 69.816406 C 45.441406 69.375 46.65625 68.714844 46.765625 67.609375 C 46.875 66.398438 45.664062 65.625 44.449219 65.292969 C 43.347656 65.074219 42.242188 65.074219 41.25 65.183594 C 42.242188 63.96875 43.125 62.535156 43.898438 61.214844 C 46.214844 56.910156 47.09375 51.835938 46.324219 46.984375 C 49.082031 45.21875 49.742188 43.457031 50.953125 42.023438 C 53.933594 38.382812 55.585938 36.394531 59.226562 33.859375 C 62.535156 31.542969 66.835938 29.007812 66.949219 24.375 C 67.058594 23.710938 66.835938 22.832031 66.394531 22.058594 C 65.734375 19.742188 63.53125 18.640625 61.214844 18.859375 C 57.683594 19.191406 51.066406 23.492188 48.199219 25.476562 C 49.519531 22.058594 47.980469 19.191406 45.550781 18.199219 C 47.097656 17.976562 48.75 17.644531 50.734375 17.316406 C 54.816406 16.652344 61.214844 14.667969 64.964844 12.574219 C 67.390625 11.25 67.941406 9.15625 67.390625 7.71875 C 66.617188 5.625 63.859375 4.410156 61.765625 4.523438 Z M 62.449219 6.273438 C 63.550781 6.320312 64.742188 6.851562 65.515625 7.71875 C 62.316406 9.042969 63.089844 9.042969 60.109375 9.265625 C 59.226562 9.375 58.457031 9.15625 57.90625 8.605469 C 57.464844 8.164062 57.242188 7.390625 57.574219 6.949219 C 57.683594 6.839844 57.683594 6.617188 57.683594 6.507812 C 59.339844 6.289062 60.328125 6.394531 61.984375 6.285156 C 62.136719 6.273438 62.292969 6.269531 62.449219 6.273438 Z M 55.808594 6.617188 C 55.035156 8.824219 56.910156 11.25 60.109375 10.917969 L 60.550781 10.917969 C 63.199219 10.699219 63.199219 10.476562 65.84375 9.375 C 65.625 10.257812 64.960938 10.921875 64.082031 11.359375 C 60.550781 13.347656 54.152344 15.222656 50.292969 15.882812 C 43.34375 17.097656 40.257812 17.425781 33.421875 18.640625 C 32.316406 18.859375 32.648438 20.40625 33.75 20.292969 C 33.96875 20.292969 37.058594 19.742188 37.28125 19.742188 C 41.582031 19.523438 45.222656 18.75 46.65625 21.839844 C 47.757812 24.375 45.441406 28.457031 42.242188 28.785156 C 37.058594 28.785156 32.757812 28.566406 27.355469 29.226562 C 26.914062 29.226562 26.582031 29.671875 26.582031 30.109375 C 26.582031 30.550781 27.023438 30.882812 27.464844 30.882812 C 34.191406 30.109375 39.265625 30.660156 45.664062 30.441406 C 46.765625 30.441406 47.648438 30.441406 48.308594 30.773438 C 49.414062 31.433594 49.632812 32.867188 49.414062 34.082031 C 49.191406 35.515625 48.308594 36.726562 47.425781 37.941406 C 47.316406 38.050781 47.316406 38.273438 47.316406 38.492188 C 46.433594 38.164062 46.542969 38.050781 31.542969 38.382812 C 31.101562 38.382812 30.773438 38.824219 30.773438 39.265625 C 30.773438 39.707031 31.101562 40.039062 31.542969 40.039062 C 46.324219 39.707031 46.214844 39.816406 46.65625 40.039062 C 47.980469 40.699219 48.308594 44.558594 42.464844 47.757812 C 41.140625 48.421875 39.046875 47.976562 37.28125 48.199219 C 36.839844 48.199219 36.507812 48.640625 36.507812 49.082031 C 36.507812 49.523438 36.949219 49.851562 37.390625 49.851562 C 39.375 49.632812 41.359375 50.292969 43.457031 49.082031 C 43.566406 49.191406 43.675781 49.414062 43.785156 49.523438 C 44.335938 53.164062 43.566406 57.019531 41.578125 60.328125 C 38.710938 64.960938 33.640625 68.601562 27.464844 70.148438 C 25.699219 70.585938 23.933594 70.699219 22.277344 70.257812 C 20.734375 69.925781 18.96875 69.265625 17.867188 68.273438 C 16.875 67.058594 15.769531 65.074219 15.660156 63.75 C 15.21875 51.839844 15.21875 40.039062 15.992188 28.457031 C 16.101562 26.140625 16.324219 24.042969 17.207031 22.277344 C 20.625 15.328125 29.339844 12.242188 36.730469 10.035156 C 41.472656 8.601562 49.300781 7.058594 55.808594 6.617188 Z M 8.109375 10.453125 C 7.515625 10.507812 7.058594 11.332031 7.71875 11.914062 C 14.558594 17.757812 14.226562 17.867188 14.78125 17.867188 C 15.550781 17.867188 15.882812 16.875 15.332031 16.433594 L 8.714844 10.699219 C 8.519531 10.503906 8.304688 10.4375 8.109375 10.453125 Z M 61.953125 20.5 C 64.472656 20.570312 65.671875 22.65625 64.742188 25.035156 C 63.75 27.574219 59.558594 30.773438 57.351562 32.425781 C 55.035156 34.191406 52.71875 35.957031 49.191406 40.039062 C 49.082031 39.707031 48.859375 39.265625 48.640625 38.933594 C 48.859375 38.933594 48.96875 38.824219 49.191406 38.601562 C 50.074219 37.28125 51.066406 35.847656 51.398438 34.082031 C 51.726562 32.425781 51.289062 30.109375 49.523438 29.007812 C 48.75 28.566406 47.757812 28.453125 46.984375 28.34375 C 47.757812 28.015625 51.289062 24.816406 57.792969 21.726562 C 58.898438 21.175781 60.109375 20.625 61.433594 20.515625 C 61.613281 20.5 61.785156 20.496094 61.953125 20.5 Z M 20.9375 23.96875 C 20.734375 24.003906 20.542969 24.125 20.40625 24.375 C 19.964844 25.148438 19.742188 26.03125 19.960938 27.023438 C 20.402344 28.457031 22.167969 29.890625 22.71875 28.675781 C 22.941406 28.234375 22.722656 27.792969 22.390625 27.574219 C 21.617188 27.132812 21.285156 25.917969 21.726562 25.257812 C 22.222656 24.597656 21.542969 23.871094 20.9375 23.96875 Z M 22.347656 32.671875 C 22.078125 32.667969 21.808594 32.894531 21.726562 33.308594 C 21.285156 35.402344 22.28125 37.722656 24.046875 39.042969 C 24.15625 39.15625 24.375 39.15625 24.484375 39.15625 C 24.703125 39.15625 25.039062 39.042969 25.148438 38.824219 C 25.367188 38.492188 25.367188 37.941406 24.925781 37.71875 C 23.710938 36.835938 23.050781 35.183594 23.273438 33.75 C 23.382812 33.308594 23.050781 32.867188 22.609375 32.757812 C 22.527344 32.703125 22.4375 32.675781 22.347656 32.671875 Z M 25.585938 41.359375 C 25.144531 41.359375 24.707031 41.582031 24.597656 42.023438 C 24.375 43.015625 24.597656 44.226562 25.257812 45.21875 C 25.917969 46.214844 26.914062 46.875 27.90625 46.984375 C 28.347656 47.09375 28.785156 46.765625 28.894531 46.324219 C 29.007812 45.882812 28.675781 45.441406 28.234375 45.332031 C 27.574219 45.21875 27.019531 44.890625 26.691406 44.226562 C 26.25 43.675781 26.140625 43.015625 26.25 42.351562 C 26.359375 41.914062 26.027344 41.46875 25.585938 41.359375 Z M 25.585938 41.359375 "/>
</g>
</svg>
